<svg width="24" height="25" viewBox="0 0 24 25" fill="none" xmlns="http://www.w3.org/2000/svg">
<g id="ep:arrow-left">
<path id="Vector" d="M9.71695 20.9989L17.49 13.0249C17.6265 12.8849 17.7029 12.697 17.7029 12.5014C17.7029 12.3058 17.6265 12.118 17.49 11.9779L9.71695 4.00094C9.65336 3.93562 9.57733 3.88371 9.49334 3.84826C9.40935 3.81281 9.31912 3.79455 9.22795 3.79455C9.13679 3.79455 9.04656 3.81281 8.96257 3.84826C8.87858 3.88371 8.80255 3.93562 8.73895 4.00094C8.60812 4.13488 8.53487 4.3147 8.53487 4.50194C8.53487 4.68918 8.60812 4.86899 8.73895 5.00294L16.0485 12.5014L8.73895 19.9984C8.60857 20.1323 8.53561 20.3118 8.53561 20.4987C8.53561 20.6856 8.60857 20.8651 8.73895 20.9989C8.80255 21.0643 8.87858 21.1162 8.96257 21.1516C9.04656 21.1871 9.13679 21.2053 9.22795 21.2053C9.31912 21.2053 9.40935 21.1871 9.49334 21.1516C9.57733 21.1162 9.65336 21.0643 9.71695 20.9989Z" fill="#010020"/>
</g>
</svg>
