<svg width="24" height="25" viewBox="0 0 24 25" fill="none" xmlns="http://www.w3.org/2000/svg">
<g id="ep:arrow-left">
<path id="Vector" d="M14.2828 4.00106L6.5098 11.9751C6.37328 12.1151 6.29688 12.303 6.29688 12.4986C6.29688 12.6942 6.37328 12.882 6.5098 13.0221L14.2828 20.9991C14.3464 21.0644 14.4224 21.1163 14.5064 21.1517C14.5904 21.1872 14.6806 21.2054 14.7718 21.2054C14.863 21.2054 14.9532 21.1872 15.0372 21.1517C15.1212 21.1163 15.1972 21.0644 15.2608 20.9991C15.3916 20.8651 15.4649 20.6853 15.4649 20.4981C15.4649 20.3108 15.3916 20.131 15.2608 19.9971L7.9513 12.4986L15.2608 5.00156C15.3912 4.86768 15.4641 4.68819 15.4641 4.50131C15.4641 4.31443 15.3912 4.13494 15.2608 4.00106C15.1972 3.93575 15.1212 3.88383 15.0372 3.84839C14.9532 3.81294 14.863 3.79468 14.7718 3.79468C14.6806 3.79468 14.5904 3.81294 14.5064 3.84839C14.4224 3.88383 14.3464 3.93575 14.2828 4.00106Z" fill="#010020"/>
</g>
</svg>
