<svg width="18" height="21" viewBox="0 0 18 21" fill="none" xmlns="http://www.w3.org/2000/svg">
<path fill-rule="evenodd" clip-rule="evenodd" d="M8.99998 9.20015C9.6365 9.20015 10.2469 8.94729 10.697 8.4972C11.1471 8.04712 11.4 7.43667 11.4 6.80015C11.4 6.16363 11.1471 5.55318 10.697 5.10309C10.2469 4.653 9.6365 4.40015 8.99998 4.40015C8.36346 4.40015 7.75301 4.653 7.30292 5.10309C6.85283 5.55318 6.59998 6.16363 6.59998 6.80015C6.59998 7.43667 6.85283 8.04712 7.30292 8.4972C7.75301 8.94729 8.36346 9.20015 8.99998 9.20015ZM8.99998 5.60015C9.31824 5.60015 9.62346 5.72658 9.8485 5.95162C10.0735 6.17666 10.2 6.48189 10.2 6.80015C10.2 7.11841 10.0735 7.42363 9.8485 7.64867C9.62346 7.87372 9.31824 8.00015 8.99998 8.00015C8.68172 8.00015 8.37649 7.87372 8.15145 7.64867C7.9264 7.42363 7.79998 7.11841 7.79998 6.80015C7.79998 6.48189 7.9264 6.17666 8.15145 5.95162C8.37649 5.72658 8.68172 5.60015 8.99998 5.60015Z" fill="white"/>
<path fill-rule="evenodd" clip-rule="evenodd" d="M3.59998 6.54325C3.59998 9.75085 6.78358 15.2 8.99998 15.2C11.2176 15.2 14.4 9.75085 14.4 6.54325C14.4 3.38005 11.9916 0.800049 8.99998 0.800049C6.00838 0.800049 3.59998 3.38005 3.59998 6.54325ZM13.2 6.54325C13.2 9.17485 10.3824 14 8.99998 14C7.61878 14 4.79998 9.17605 4.79998 6.54325C4.79998 4.02445 6.68998 2.00005 8.99998 2.00005C11.31 2.00005 13.2 4.02445 13.2 6.54325Z" fill="white"/>
<path d="M13.122 9.96798C12.9786 9.90624 12.8648 9.79099 12.805 9.64671C12.7451 9.50243 12.7439 9.34051 12.8016 9.19534C12.8592 9.05018 12.9712 8.93323 13.1137 8.86933C13.2563 8.80544 13.4181 8.79964 13.5648 8.85318C14.0528 9.04672 14.4925 9.34464 14.8532 9.72606C15.2139 10.1075 15.4868 10.5632 15.6528 11.0612L17.2536 15.8612C17.4342 16.4025 17.4834 16.9791 17.3973 17.5432C17.3112 18.1073 17.0922 18.6429 16.7584 19.1058C16.4246 19.5686 15.9855 19.9455 15.4774 20.2053C14.9693 20.4651 14.4067 20.6004 13.836 20.6H4.16403C3.59357 20.6 3.03126 20.4644 2.52347 20.2045C2.01568 19.9445 1.57693 19.5676 1.2434 19.1048C0.90986 18.642 0.691083 18.1066 0.605096 17.5426C0.519109 16.9787 0.568375 16.4023 0.748832 15.8612L2.34843 11.0612C2.51734 10.5542 2.79697 10.0912 3.16705 9.7058C3.53713 9.32037 3.98837 9.02214 4.48803 8.83278C4.5617 8.8048 4.64016 8.79162 4.71893 8.79397C4.7977 8.79632 4.87523 8.81416 4.94711 8.84647C5.01898 8.87879 5.08378 8.92495 5.13782 8.9823C5.19185 9.03966 5.23406 9.1071 5.26203 9.18078C5.29 9.25445 5.30319 9.33291 5.30084 9.41167C5.29849 9.49044 5.28065 9.56798 5.24833 9.63985C5.21602 9.71172 5.16986 9.77653 5.1125 9.83056C5.05514 9.8846 4.9877 9.9268 4.91403 9.95478C4.5805 10.0809 4.27928 10.2799 4.03227 10.537C3.78525 10.7942 3.59865 11.1032 3.48603 11.4416L1.88643 16.2416C1.76626 16.6024 1.73355 16.9866 1.79099 17.3625C1.84843 17.7384 1.99438 18.0953 2.21681 18.4037C2.43924 18.7122 2.73179 18.9634 3.07033 19.1366C3.40888 19.3098 3.78375 19.4001 4.16403 19.4H13.8384C14.2188 19.3999 14.5936 19.3095 14.9321 19.1362C15.2707 18.9628 15.5631 18.7115 15.7855 18.4029C16.0078 18.0943 16.1536 17.7373 16.2108 17.3614C16.2681 16.9854 16.2352 16.6011 16.1148 16.2404L14.5164 11.4404C14.4057 11.1085 14.2237 10.8049 13.9832 10.5507C13.7428 10.2966 13.4497 10.0981 13.1244 9.96918L13.122 9.96798Z" fill="white"/>
</svg>
