<svg width="24" height="24" viewBox="0 0 24 24" fill="none" xmlns="http://www.w3.org/2000/svg">
<g id="ep:arrow-left">
<path id="Vector" d="M3.50106 9.71695L11.4751 17.49C11.6151 17.6265 11.803 17.7029 11.9986 17.7029C12.1942 17.7029 12.382 17.6265 12.5221 17.49L20.4991 9.71695C20.5644 9.65336 20.6163 9.57733 20.6517 9.49334C20.6872 9.40935 20.7054 9.31912 20.7054 9.22795C20.7054 9.13679 20.6872 9.04656 20.6517 8.96257C20.6163 8.87858 20.5644 8.80255 20.4991 8.73895C20.3651 8.60812 20.1853 8.53487 19.9981 8.53487C19.8108 8.53487 19.631 8.60812 19.4971 8.73895L11.9986 16.0485L4.50156 8.73895C4.36768 8.60857 4.18819 8.53561 4.00131 8.53561C3.81443 8.53561 3.63494 8.60857 3.50106 8.73895C3.43575 8.80255 3.38383 8.87858 3.34839 8.96257C3.31294 9.04656 3.29468 9.13679 3.29468 9.22795C3.29468 9.31912 3.31294 9.40935 3.34839 9.49334C3.38383 9.57733 3.43575 9.65336 3.50106 9.71695Z" fill="#010020"/>
</g>
</svg>
