<svg width="24" height="24" viewBox="0 0 24 24" fill="none" xmlns="http://www.w3.org/2000/svg">
<g id="ep:arrow-left">
<path id="Vector" d="M20.4989 14.283L12.5249 6.51005C12.3849 6.37352 12.197 6.29712 12.0014 6.29712C11.8058 6.29712 11.618 6.37352 11.4779 6.51005L3.50094 14.283C3.43562 14.3466 3.38371 14.4227 3.34826 14.5067C3.31281 14.5906 3.29455 14.6809 3.29455 14.772C3.29455 14.8632 3.31281 14.9534 3.34826 15.0374C3.38371 15.1214 3.43562 15.1975 3.50094 15.261C3.63488 15.3919 3.8147 15.4651 4.00194 15.4651C4.18918 15.4651 4.36899 15.3919 4.50294 15.261L12.0014 7.95155L19.4984 15.261C19.6323 15.3914 19.8118 15.4644 19.9987 15.4644C20.1856 15.4644 20.3651 15.3914 20.4989 15.261C20.5643 15.1975 20.6162 15.1214 20.6516 15.0374C20.6871 14.9534 20.7053 14.8632 20.7053 14.772C20.7053 14.6809 20.6871 14.5906 20.6516 14.5067C20.6162 14.4227 20.5643 14.3466 20.4989 14.283Z" fill="#010020"/>
</g>
</svg>
