<svg width="24" height="24" viewBox="0 0 24 24" fill="none" xmlns="http://www.w3.org/2000/svg">
<path fill-rule="evenodd" clip-rule="evenodd" d="M12.0001 10.2001C12.6366 10.2001 13.2471 9.94729 13.6972 9.4972C14.1472 9.04712 14.4001 8.43667 14.4001 7.80015C14.4001 7.16363 14.1472 6.55318 13.6972 6.10309C13.2471 5.653 12.6366 5.40015 12.0001 5.40015C11.3636 5.40015 10.7531 5.653 10.303 6.10309C9.85295 6.55318 9.6001 7.16363 9.6001 7.80015C9.6001 8.43667 9.85295 9.04712 10.303 9.4972C10.7531 9.94729 11.3636 10.2001 12.0001 10.2001ZM12.0001 6.60015C12.3184 6.60015 12.6236 6.72658 12.8486 6.95162C13.0737 7.17666 13.2001 7.48189 13.2001 7.80015C13.2001 8.11841 13.0737 8.42363 12.8486 8.64867C12.6236 8.87372 12.3184 9.00015 12.0001 9.00015C11.6818 9.00015 11.3766 8.87372 11.1516 8.64867C10.9265 8.42363 10.8001 8.11841 10.8001 7.80015C10.8001 7.48189 10.9265 7.17666 11.1516 6.95162C11.3766 6.72658 11.6818 6.60015 12.0001 6.60015Z" fill="#010020"/>
<path fill-rule="evenodd" clip-rule="evenodd" d="M6.6001 7.54325C6.6001 10.7508 9.7837 16.2 12.0001 16.2C14.2177 16.2 17.4001 10.7508 17.4001 7.54325C17.4001 4.38005 14.9917 1.80005 12.0001 1.80005C9.0085 1.80005 6.6001 4.38005 6.6001 7.54325ZM16.2001 7.54325C16.2001 10.1748 13.3825 15 12.0001 15C10.6189 15 7.8001 10.176 7.8001 7.54325C7.8001 5.02445 9.6901 3.00005 12.0001 3.00005C14.3101 3.00005 16.2001 5.02445 16.2001 7.54325Z" fill="#010020"/>
<path d="M16.122 10.968C15.9786 10.9062 15.8648 10.791 15.805 10.6467C15.7451 10.5024 15.7439 10.3405 15.8016 10.1953C15.8592 10.0502 15.9712 9.93323 16.1137 9.86933C16.2563 9.80544 16.4181 9.79964 16.5648 9.85318C17.0528 10.0467 17.4925 10.3446 17.8532 10.7261C18.2139 11.1075 18.4868 11.5632 18.6528 12.0612L20.2536 16.8612C20.4342 17.4025 20.4834 17.9791 20.3973 18.5432C20.3112 19.1073 20.0922 19.6429 19.7584 20.1058C19.4246 20.5686 18.9855 20.9455 18.4774 21.2053C17.9693 21.4651 17.4067 21.6004 16.836 21.6H7.16403C6.59357 21.6 6.03126 21.4644 5.52347 21.2045C5.01568 20.9445 4.57693 20.5676 4.2434 20.1048C3.90986 19.642 3.69108 19.1066 3.6051 18.5426C3.51911 17.9787 3.56837 17.4023 3.74883 16.8612L5.34843 12.0612C5.51734 11.5542 5.79697 11.0912 6.16705 10.7058C6.53713 10.3204 6.98837 10.0221 7.48803 9.83278C7.5617 9.8048 7.64016 9.79162 7.71893 9.79397C7.7977 9.79632 7.87523 9.81416 7.94711 9.84647C8.01898 9.87879 8.08378 9.92495 8.13782 9.9823C8.19185 10.0397 8.23406 10.1071 8.26203 10.1808C8.29 10.2544 8.30319 10.3329 8.30084 10.4117C8.29849 10.4904 8.28065 10.568 8.24833 10.6398C8.21602 10.7117 8.16986 10.7765 8.1125 10.8306C8.05514 10.8846 7.9877 10.9268 7.91403 10.9548C7.5805 11.0809 7.27928 11.2799 7.03227 11.537C6.78525 11.7942 6.59865 12.1032 6.48603 12.4416L4.88643 17.2416C4.76626 17.6024 4.73355 17.9866 4.79099 18.3625C4.84843 18.7384 4.99438 19.0953 5.21681 19.4037C5.43924 19.7122 5.73179 19.9634 6.07033 20.1366C6.40888 20.3098 6.78375 20.4001 7.16403 20.4H16.8384C17.2188 20.3999 17.5936 20.3095 17.9321 20.1362C18.2707 19.9628 18.5631 19.7115 18.7855 19.4029C19.0078 19.0943 19.1536 18.7373 19.2108 18.3614C19.2681 17.9854 19.2352 17.6011 19.1148 17.2404L17.5164 12.4404C17.4057 12.1085 17.2237 11.8049 16.9832 11.5507C16.7428 11.2966 16.4497 11.0981 16.1244 10.9692L16.122 10.968Z" fill="#010020"/>
</svg>
