<svg width="24" height="24" viewBox="0 0 24 24" fill="none" xmlns="http://www.w3.org/2000/svg">
<g id="ic:baseline-power-settings-new">
<path id="Vector" d="M13 3H11V13H13V3ZM17.83 5.17L16.41 6.59C17.2199 7.23968 17.8733 8.0633 18.3216 8.9998C18.77 9.93631 19.0018 10.9617 19 12C19 15.87 15.87 19 12 19C10.5552 19.0009 9.14562 18.5543 7.96486 17.7218C6.78409 16.8892 5.89009 15.7114 5.40569 14.3503C4.92129 12.9891 4.87024 11.5114 5.25957 10.12C5.6489 8.72871 6.4595 7.49206 7.58 6.58L6.17 5.17C5.17622 6.00901 4.37765 7.05492 3.83011 8.23463C3.28257 9.41435 2.99927 10.6994 3 12C3 14.3869 3.94821 16.6761 5.63604 18.364C7.32387 20.0518 9.61305 21 12 21C14.3869 21 16.6761 20.0518 18.364 18.364C20.0518 16.6761 21 14.3869 21 12C21 9.26 19.77 6.82 17.83 5.17Z" fill="#010020"/>
</g>
</svg>
