<svg width="24" height="19" viewBox="0 0 24 19" fill="none" xmlns="http://www.w3.org/2000/svg">
<g id="Group">
<path id="Vector" d="M12 3C12.1989 3 12.3897 3.07902 12.5303 3.21967C12.671 3.36032 12.75 3.55109 12.75 3.75V6C12.75 6.19891 12.671 6.38968 12.5303 6.53033C12.3897 6.67098 12.1989 6.75 12 6.75C11.8011 6.75 11.6103 6.67098 11.4697 6.53033C11.329 6.38968 11.25 6.19891 11.25 6V3.75C11.25 3.55109 11.329 3.36032 11.4697 3.21967C11.6103 3.07902 11.8011 3 12 3ZM5.598 5.598C5.73865 5.4574 5.92938 5.37841 6.12825 5.37841C6.32712 5.37841 6.51785 5.4574 6.6585 5.598L8.031 6.969C8.10073 7.03873 8.15605 7.12152 8.19379 7.21262C8.23152 7.30373 8.25095 7.40138 8.25095 7.5C8.25095 7.59862 8.23152 7.69627 8.19379 7.78738C8.15605 7.87848 8.10073 7.96127 8.031 8.031C7.96127 8.10073 7.87848 8.15605 7.78738 8.19379C7.69627 8.23152 7.59862 8.25095 7.5 8.25095C7.40138 8.25095 7.30373 8.23152 7.21262 8.19379C7.12152 8.15605 7.03873 8.10073 6.969 8.031L5.598 6.6585C5.4574 6.51785 5.37841 6.32712 5.37841 6.12825C5.37841 5.92938 5.4574 5.73865 5.598 5.598ZM3 12C3 11.8011 3.07902 11.6103 3.21967 11.4697C3.36032 11.329 3.55109 11.25 3.75 11.25H6.129C6.32791 11.25 6.51868 11.329 6.65933 11.4697C6.79998 11.6103 6.879 11.8011 6.879 12C6.879 12.1989 6.79998 12.3897 6.65933 12.5303C6.51868 12.671 6.32791 12.75 6.129 12.75H3.75C3.55109 12.75 3.36032 12.671 3.21967 12.5303C3.07902 12.3897 3 12.1989 3 12ZM17.25 12C17.25 11.8011 17.329 11.6103 17.4697 11.4697C17.6103 11.329 17.8011 11.25 18 11.25H20.25C20.4489 11.25 20.6397 11.329 20.7803 11.4697C20.921 11.6103 21 11.8011 21 12C21 12.1989 20.921 12.3897 20.7803 12.5303C20.6397 12.671 20.4489 12.75 20.25 12.75H18C17.8011 12.75 17.6103 12.671 17.4697 12.5303C17.329 12.3897 17.25 12.1989 17.25 12ZM18.381 5.631C18.2771 5.52763 18.1381 5.46715 17.9916 5.46159C17.8451 5.45603 17.7019 5.5058 17.5905 5.601L11.3205 10.965C11.1744 11.0881 11.0558 11.2405 10.9723 11.4123C10.8888 11.5841 10.8423 11.7715 10.8358 11.9624C10.8293 12.1533 10.863 12.3435 10.9346 12.5206C11.0062 12.6977 11.1142 12.8578 11.2515 12.9905C11.3889 13.1233 11.5526 13.2257 11.7321 13.2912C11.9115 13.3566 12.1027 13.3837 12.2933 13.3707C12.4839 13.3576 12.6696 13.3047 12.8385 13.2154C13.0073 13.126 13.1555 13.0022 13.2735 12.852L18.4245 6.4065C18.5141 6.29432 18.5592 6.15304 18.5512 6.00969C18.5432 5.86634 18.4826 5.73097 18.381 5.6295V5.631Z" fill="#010020"/>
<path id="Vector_2" fill-rule="evenodd" clip-rule="evenodd" d="M7.96175e-06 12C0.00157602 10.2537 0.384267 8.52875 1.12137 6.94564C1.85846 5.36253 2.93221 3.95937 4.26764 2.83412C5.60306 1.70886 7.16799 0.888636 8.85318 0.430695C10.5384 -0.0272464 12.3032 -0.111866 14.0245 0.182744C15.7457 0.477354 17.382 1.14409 18.8189 2.13642C20.2559 3.12874 21.459 4.42273 22.3441 5.92806C23.2293 7.43339 23.7753 9.11378 23.9439 10.8519C24.1126 12.5901 23.8998 14.3441 23.3205 15.9915C22.6575 17.871 20.553 18.3945 18.9225 17.8665C16.9635 17.232 14.2125 16.5 12 16.5C9.78901 16.5 7.03501 17.232 5.07751 17.8665C3.44701 18.3945 1.34251 17.871 0.679508 15.9915C0.228221 14.7091 -0.00155913 13.3594 7.96175e-06 12ZM12 1.49997C10.3206 1.49953 8.66552 1.90196 7.17377 2.67347C5.68203 3.44497 4.39711 4.56305 3.42686 5.93387C2.4566 7.30469 1.82933 8.88824 1.59767 10.5516C1.36601 12.215 1.53673 13.9097 2.09551 15.4935C2.40001 16.356 3.48001 16.8075 4.61551 16.4385C6.59551 15.7995 9.53701 15 12 15C14.463 15 17.406 15.798 19.3845 16.44C20.52 16.8075 21.6 16.356 21.9045 15.4935C22.4633 13.9097 22.634 12.215 22.4023 10.5516C22.1707 8.88824 21.5434 7.30469 20.5732 5.93387C19.6029 4.56305 18.318 3.44497 16.8262 2.67347C15.3345 1.90196 13.6795 1.49953 12 1.49997Z" fill="#010020"/>
</g>
</svg>
