<svg width="123" height="24" viewBox="0 0 123 24" fill="none" xmlns="http://www.w3.org/2000/svg">
<g clip-path="url(#clip0_107_964)">
<path d="M92.1756 12.0275C92.1081 12.1129 92.0453 12.2028 91.9725 12.2828C90.2888 14.1373 88.6034 15.9912 86.9161 17.8447C86.7683 18.0045 86.6729 18.2061 86.6426 18.4222C86.3521 20.1883 86.0571 21.9539 85.7576 23.719C85.7439 23.8013 85.7144 23.8813 85.6894 23.9719H81.4354L85.4113 0.0382073H89.716C88.9522 4.27973 88.377 8.52201 87.4958 12.7491C87.5602 12.7064 87.5981 12.6942 87.6163 12.6683C88.324 11.6115 89.2159 10.7102 90.0585 9.76849C92.8874 6.6071 95.721 3.44799 98.5595 0.29116C98.6332 0.197365 98.7281 0.12259 98.8363 0.0730334C98.9445 0.0234772 99.0629 0.000568614 99.1816 0.0062086C100.442 0.0206848 101.703 0.0123012 102.964 0.0130631C103.082 0.0130631 103.198 0.0252558 103.376 0.0343987C103.262 0.169256 103.19 0.262968 103.112 0.346015C100.687 3.00455 98.2595 5.66157 95.8286 8.31706C95.649 8.51287 95.618 8.67211 95.6968 8.92659C97.2001 13.8129 98.6964 18.7013 100.186 23.5917C100.22 23.7068 100.25 23.8203 100.291 23.9727H95.7779L92.2688 12.0725L92.1756 12.0275Z" fill="#00001D"/>
<path d="M103.507 23.9695L107.483 0.03125H122.571L121.947 3.77373H111.16L110.128 9.98478H119.069L118.474 13.5505H109.532L108.42 20.2149H119.631C119.452 21.4949 119.223 22.7193 119.016 23.9695H103.507Z" fill="#00001D"/>
<path d="M75.7539 0.0327148H80.1889L76.2199 23.9306C75.9304 24.0114 72.1948 24.0236 71.7826 23.9428L75.7539 0.0327148Z" fill="#00001D"/>
<path d="M49.95 23.9662L53.925 0.031767C54.0531 0.024148 54.1698 0.0111987 54.2872 0.0111987C56.9302 0.0111987 59.5732 0.0035797 62.2162 0.0111987C63.3194 0.00522266 64.4204 0.111153 65.5025 0.327386C67.556 0.755577 69.27 2.73577 69.6147 4.70529C69.7802 5.60697 69.7691 6.53245 69.5821 7.42986C69.279 8.86301 68.4834 9.95634 67.265 10.748C66.6815 11.1289 66.0488 11.4009 65.3411 11.6501C65.4494 11.7201 65.5184 11.7742 65.5949 11.8131C66.1968 12.1041 66.7549 12.4788 67.2529 12.9262C68.3175 13.9053 68.8623 15.1358 68.96 16.5674C69.101 18.6245 68.4061 20.3982 67.1112 21.9548C66.4762 22.7167 65.6214 23.1487 64.6978 23.4527C63.7468 23.7651 62.7633 23.9 61.7691 23.9632C61.466 23.9822 61.1629 23.9906 60.8598 23.9906C57.3318 23.9906 53.8038 23.9906 50.2758 23.9906C50.1826 23.9937 50.0863 23.9784 49.95 23.9662ZM54.8222 20.4333C54.9737 20.4432 55.0669 20.4546 55.1617 20.4546C56.7605 20.4546 58.3601 20.4691 59.9589 20.4485C60.576 20.435 61.1918 20.3856 61.8032 20.3007C62.2081 20.2554 62.5998 20.1288 62.9552 19.9284C63.3105 19.728 63.6222 19.458 63.8718 19.1342C64.356 18.5194 64.5743 17.8116 64.6432 17.0436C64.8107 15.1746 63.6059 13.6485 62.0548 13.391C61.7816 13.337 61.5047 13.3038 61.2266 13.292C59.555 13.2737 57.8834 13.2683 56.2126 13.2615C56.1458 13.2681 56.0797 13.2803 56.0149 13.2981L54.8222 20.4333ZM56.565 9.93501H56.9151C58.3194 9.93501 59.724 9.93298 61.1288 9.92891C61.7591 9.93162 62.3871 9.85301 62.9974 9.69501C63.5672 9.54263 64.0999 9.31405 64.4939 8.85005C65.2327 7.98148 65.5714 6.9872 65.3881 5.84053C65.2418 4.92624 64.7751 4.24053 63.937 3.82987C63.7074 3.72063 63.4689 3.63167 63.224 3.56396C62.6019 3.3872 61.9623 3.34605 61.3183 3.34605C60.2286 3.34605 59.1388 3.34605 58.0486 3.34605H57.6637L56.565 9.93501Z" fill="#00001D"/>
<path d="M21.9744 0H29.4002L24.8917 0.647619L21.9744 0Z" fill="#00001D"/>
<path d="M29.4001 0L19.7269 9.92533C19.3049 10.3583 19.0348 10.9178 18.9574 11.519C18.88 12.1202 18.9996 12.7304 19.298 13.2571L25.3841 24L20.9893 23.3905L16.1807 14.7642C15.6444 13.8023 15.4332 12.6913 15.5787 11.5984C15.7243 10.5054 16.2187 9.48945 16.9877 8.70324L24.8787 0.636951L29.4001 0Z" fill="#00001D"/>
<path d="M17.9584 24.0001H25.3842L20.9893 23.3906L17.9584 24.0001Z" fill="#00001D"/>
<path d="M4.01599 0H11.4418L6.93328 0.647619L4.01599 0Z" fill="#00001D"/>
<path d="M0 24.0001H7.42582L3.03095 23.3906L0 24.0001Z" fill="#00001D"/>
<path d="M16.0496 8.52419L23.8687 0.380952L21.9743 0L15.0623 7.09181L15.8852 8.70324C15.9382 8.64305 15.9928 8.58286 16.0496 8.52419Z" fill="#CE1212"/>
<path d="M4.016 0L8.94129 8.16152C9.54861 9.09604 9.8294 10.2072 9.73941 11.3199C9.64941 12.4326 9.19374 13.4835 8.44421 14.3071L0 24L7.86303 13.965C8.45609 13.2082 8.82044 12.296 8.91272 11.337C9.00501 10.378 8.82135 9.4125 8.3836 8.55543L4.016 0Z" fill="#CE1212"/>
<path d="M11.4418 0L6.93476 0.647619L11.4653 9.72647C11.7304 10.2578 11.8392 10.8543 11.7789 11.4457C11.7187 12.037 11.4918 12.5989 11.125 13.0651L2.99756 23.3973L7.42577 24L14.9584 14.3672C14.569 13.4309 14.4494 12.4033 14.6132 11.4019C14.7771 10.4004 15.2179 9.46551 15.8851 8.704" fill="#00001D"/>
<path d="M15.2381 14.9424C15.1334 14.7564 15.0398 14.5643 14.9577 14.3672L13.5271 16.1805L17.9583 24L20.1247 23.5641L15.2381 14.9424Z" fill="#CE1212"/>
<path d="M8.4427 14.3071L0 24L2.9976 23.3973L11.1236 13.0651C11.4904 12.5989 11.7172 12.037 11.7775 11.4457C11.8377 10.8543 11.7289 10.2578 11.4638 9.72647L6.93329 0.647619L4.016 0L8.94129 8.16152C9.54841 9.09621 9.82895 10.2075 9.73868 11.3201C9.6484 12.4328 9.19246 13.4837 8.4427 14.3071Z" fill="#F3E5E5"/>
<path d="M15.8851 8.70407C15.1461 9.54751 14.6868 10.6015 14.571 11.7195C14.4551 12.8375 14.6885 13.9641 15.2388 14.9425L20.1254 23.565L20.9892 23.3905L16.1806 14.7643C15.9502 14.351 15.7783 13.9073 15.6699 13.4462C15.6118 13.531 15.6118 13.531 15.6699 13.4462C15.4728 12.6081 15.4903 11.7334 15.7207 10.9039C15.9512 10.0745 16.3871 9.31734 16.9876 8.70331L24.8719 0.643122L23.8368 0.414551L16.0496 8.52426C15.9927 8.58293 15.9382 8.64312 15.8851 8.70407Z" fill="#F3E5E5"/>
<path d="M46.0666 24H29.476C29.476 24 37.0768 19.1794 40.7586 16.7375C42.0915 15.8529 43.3827 14.9089 44.5708 13.8323C45.3286 13.1466 46.0067 12.3923 46.4712 11.4651C47.31 9.78891 47.6078 8.02891 47.2168 6.19272C46.7516 4.00834 45.3778 2.52796 43.438 1.5451C42.4681 1.05215 41.4217 0.832719 40.3396 0.783195C39.1083 0.728338 37.9027 0.859385 36.7517 1.33024C36.3583 1.49227 35.9779 1.68432 35.6136 1.90472C35.0832 2.23995 34.2497 2.89519 34.2497 2.89519C34.6437 2.51158 35.0654 2.15784 35.5113 1.83691C37.1253 0.684144 38.9022 0.00833584 40.9003 0.0380501C42.6841 0.0639549 44.3496 0.516529 45.8127 1.5832C47.2759 2.64986 48.1094 4.09214 48.4838 5.84224C49.0255 8.37481 48.5186 10.6841 47.0441 12.7939C46.2053 13.9961 45.0808 15.1344 43.9427 16.0449C42.0066 17.5954 33.9663 22.7809 33.9663 22.7809L46.0666 24Z" fill="#00001D"/>
<path d="M38.5801 13.2692C39.2727 12.7092 39.9592 12.1378 40.6063 11.5267C41.7134 10.4814 42.1976 9.17623 42.046 7.6509C41.9119 6.31376 40.967 5.44138 39.6357 5.39262C39.018 5.36821 38.4038 5.49612 37.8466 5.76519C37.2309 6.06716 36.6756 6.48038 36.2084 6.98423C35.7506 7.46699 35.3478 7.99955 35.0074 8.57205C34.9521 8.66424 34.7043 9.06652 34.7043 9.06652C34.7043 9.06652 35.75 6.27567 36.8002 5.401C37.9027 4.48671 39.1674 4.13548 40.5699 4.42119C42.3226 4.77776 43.4425 6.39147 43.2538 8.18119C43.1265 9.39109 42.6082 10.4128 41.8551 11.3332C41.2724 12.0448 40.5843 12.6467 39.8743 13.2242C38.6854 14.1911 37.4246 15.0566 36.147 15.9C34.2603 17.1427 27.9604 21.1808 27.9604 21.1808C27.9604 21.1808 35.922 15.4178 38.5801 13.2692Z" fill="#00001D"/>
<path d="M34.2497 2.89502C32.8433 4.16054 31.9007 5.73997 31.2483 7.54797C32.2849 8.00816 34.7043 9.06645 34.7043 9.06645C34.7043 9.06645 31.6166 8.28702 30.2397 7.92359C30.9785 5.73692 32.2796 4.03788 34.2497 2.89502Z" fill="#00001D"/>
<path d="M37.245 20.6318L46.6008 20.6478L46.0704 24.0002L33.9663 22.7819L37.245 20.6318Z" fill="#CE1212"/>
<path d="M46.0666 24H46.0704L33.9663 22.7817L46.0666 24Z" fill="#F3E5E5"/>
<path d="M31.2483 7.54812C32.2849 8.00831 34.7044 9.0666 34.7044 9.0666C34.7044 9.0666 35.75 6.27574 36.8003 5.40107C37.9028 4.48679 39.1674 4.13555 40.57 4.42127C42.3226 4.77784 43.4426 6.39155 43.2539 8.18126C43.1266 9.39117 42.6083 10.4129 41.8551 11.3333C41.2724 12.0449 40.5844 12.6468 39.8744 13.2243C38.6855 14.1912 37.4246 15.0567 36.1471 15.8994C34.3338 17.0963 28.4439 20.8708 27.9893 21.1618L27.5059 23.9999H29.476C29.476 23.9999 37.0768 19.1794 40.7587 16.7375C42.0915 15.8529 43.3827 14.9089 44.5708 13.8323C45.3286 13.1466 46.0067 12.3923 46.4712 11.4651C47.3101 9.78888 47.6078 8.02888 47.2169 6.19269C46.7516 4.00831 45.3778 2.52793 43.438 1.54508C42.4681 1.05212 41.4217 0.832695 40.3396 0.783171C39.1083 0.728314 37.9028 0.859361 36.7518 1.33022C36.3584 1.49225 35.9779 1.6843 35.6136 1.90469C35.0832 2.23993 34.2497 2.89517 34.2497 2.89517C32.8434 4.16069 31.9007 5.74012 31.2483 7.54812Z" fill="#F3E5E5"/>
</g>
<defs>
<clipPath id="clip0_107_964">
<rect width="122.571" height="24" fill="white"/>
</clipPath>
</defs>
</svg>
